<svg xmlns="http://www.w3.org/2000/svg" version="1.1" xmlns:xlink="http://www.w3.org/1999/xlink" xmlns:svgjs="http://svgjs.dev/svgjs" width="1075" height="600" preserveAspectRatio="none" viewBox="0 0 1075 600"><g mask="url(&quot;#SvgjsMask1026&quot;)" fill="none"><rect width="1075" height="600" x="0" y="0" fill="rgba(0, 39, 18, 1)"></rect><path d="M-54.68 360.57L-54.68 360.57" stroke="rgba(2, 59, 13, 1)" stroke-width="1.5"></path><path d="M-54.68 360.57L-69.77 501.13" stroke="rgba(2, 59, 13, 1)" stroke-width="1.5"></path><path d="M-54.68 360.57L68.24 452.24" stroke="rgba(2, 59, 13, 1)" stroke-width="1.5"></path><path d="M-54.68 360.57L-71.29 572.71" stroke="rgba(2, 59, 13, 1)" stroke-width="1.5"></path><path d="M-69.77 501.13L-69.77 501.13" stroke="rgba(2, 59, 13, 1)" stroke-width="1.5"></path><path d="M-69.77 501.13L-71.29 572.71" stroke="rgba(2, 59, 13, 1)" stroke-width="1.5"></path><path d="M-71.29 572.71L-71.29 572.71" stroke="rgba(2, 59, 13, 1)" stroke-width="1.5"></path><path d="M-71.29 572.71L49.98 626.52" stroke="rgba(2, 59, 13, 1)" stroke-width="1.5"></path><path d="M-71.29 572.71L-72.93 749.45" stroke="rgba(2, 59, 13, 1)" stroke-width="1.5"></path><path d="M-72.93 749.45L-72.93 749.45" stroke="rgba(2, 59, 13, 1)" stroke-width="1.5"></path><path d="M-72.93 749.45L74.43 745.14" stroke="rgba(2, 59, 13, 1)" stroke-width="1.5"></path><path d="M-72.93 749.45L49.98 626.52" stroke="rgba(2, 59, 13, 1)" stroke-width="1.5"></path><path d="M68.24 452.24L68.24 452.24" stroke="rgba(2, 59, 13, 1)" stroke-width="1.5"></path><path d="M68.24 452.24L213.4 442.61" stroke="rgba(2, 59, 13, 1)" stroke-width="1.5"></path><path d="M68.24 452.24L-69.77 501.13" stroke="rgba(2, 59, 13, 1)" stroke-width="1.5"></path><path d="M68.24 452.24L181.87 351.47" stroke="rgba(2, 59, 13, 1)" stroke-width="1.5"></path><path d="M68.24 452.24L49.98 626.52" stroke="rgba(2, 59, 13, 1)" stroke-width="1.5"></path><path d="M49.98 626.52L49.98 626.52" stroke="rgba(2, 59, 13, 1)" stroke-width="1.5"></path><path d="M49.98 626.52L74.43 745.14" stroke="rgba(2, 59, 13, 1)" stroke-width="1.5"></path><path d="M74.43 745.14L74.43 745.14" stroke="rgba(2, 59, 13, 1)" stroke-width="1.5"></path><path d="M74.43 745.14L173.29 752.69" stroke="rgba(2, 59, 13, 1)" stroke-width="1.5"></path><path d="M181.87 351.47L181.87 351.47" stroke="rgba(2, 59, 13, 1)" stroke-width="1.5"></path><path d="M181.87 351.47L213.4 442.61" stroke="rgba(2, 59, 13, 1)" stroke-width="1.5"></path><path d="M181.87 351.47L351.92 360.93" stroke="rgba(2, 59, 13, 1)" stroke-width="1.5"></path><path d="M181.87 351.47L359.98 456.85" stroke="rgba(2, 59, 13, 1)" stroke-width="1.5"></path><path d="M181.87 351.47L-54.68 360.57" stroke="rgba(2, 59, 13, 1)" stroke-width="1.5"></path><path d="M181.87 351.47L189.53 612.67" stroke="rgba(2, 59, 13, 1)" stroke-width="1.5"></path><path d="M213.4 442.61L213.4 442.61" stroke="rgba(2, 59, 13, 1)" stroke-width="1.5"></path><path d="M189.53 612.67L189.53 612.67" stroke="rgba(2, 59, 13, 1)" stroke-width="1.5"></path><path d="M189.53 612.67L49.98 626.52" stroke="rgba(2, 59, 13, 1)" stroke-width="1.5"></path><path d="M189.53 612.67L173.29 752.69" stroke="rgba(2, 59, 13, 1)" stroke-width="1.5"></path><path d="M189.53 612.67L353.53 590.77" stroke="rgba(2, 59, 13, 1)" stroke-width="1.5"></path><path d="M189.53 612.67L213.4 442.61" stroke="rgba(2, 59, 13, 1)" stroke-width="1.5"></path><path d="M189.53 612.67L74.43 745.14" stroke="rgba(2, 59, 13, 1)" stroke-width="1.5"></path><path d="M173.29 752.69L173.29 752.69" stroke="rgba(2, 59, 13, 1)" stroke-width="1.5"></path><path d="M173.29 752.69L49.98 626.52" stroke="rgba(2, 59, 13, 1)" stroke-width="1.5"></path><path d="M173.29 752.69L356.37 740.55" stroke="rgba(2, 59, 13, 1)" stroke-width="1.5"></path><path d="M173.29 752.69L353.53 590.77" stroke="rgba(2, 59, 13, 1)" stroke-width="1.5"></path><path d="M351.92 360.93L351.92 360.93" stroke="rgba(2, 59, 13, 1)" stroke-width="1.5"></path><path d="M351.92 360.93L359.98 456.85" stroke="rgba(2, 59, 13, 1)" stroke-width="1.5"></path><path d="M351.92 360.93L478.31 339.34" stroke="rgba(2, 59, 13, 1)" stroke-width="1.5"></path><path d="M351.92 360.93L213.4 442.61" stroke="rgba(2, 59, 13, 1)" stroke-width="1.5"></path><path d="M359.98 456.85L359.98 456.85" stroke="rgba(2, 59, 13, 1)" stroke-width="1.5"></path><path d="M359.98 456.85L485.05 491.87" stroke="rgba(2, 59, 13, 1)" stroke-width="1.5"></path><path d="M359.98 456.85L353.53 590.77" stroke="rgba(2, 59, 13, 1)" stroke-width="1.5"></path><path d="M353.53 590.77L353.53 590.77" stroke="rgba(2, 59, 13, 1)" stroke-width="1.5"></path><path d="M353.53 590.77L501.61 592.6" stroke="rgba(2, 59, 13, 1)" stroke-width="1.5"></path><path d="M353.53 590.77L356.37 740.55" stroke="rgba(2, 59, 13, 1)" stroke-width="1.5"></path><path d="M353.53 590.77L485.05 491.87" stroke="rgba(2, 59, 13, 1)" stroke-width="1.5"></path><path d="M353.53 590.77L213.4 442.61" stroke="rgba(2, 59, 13, 1)" stroke-width="1.5"></path><path d="M356.37 740.55L356.37 740.55" stroke="rgba(2, 59, 13, 1)" stroke-width="1.5"></path><path d="M356.37 740.55L494.82 747.2" stroke="rgba(2, 59, 13, 1)" stroke-width="1.5"></path><path d="M356.37 740.55L501.61 592.6" stroke="rgba(2, 59, 13, 1)" stroke-width="1.5"></path><path d="M356.37 740.55L189.53 612.67" stroke="rgba(2, 59, 13, 1)" stroke-width="1.5"></path><path d="M478.31 339.34L478.31 339.34" stroke="rgba(2, 59, 13, 1)" stroke-width="1.5"></path><path d="M478.31 339.34L586.8 308.86" stroke="rgba(2, 59, 13, 1)" stroke-width="1.5"></path><path d="M478.31 339.34L485.05 491.87" stroke="rgba(2, 59, 13, 1)" stroke-width="1.5"></path><path d="M478.31 339.34L359.98 456.85" stroke="rgba(2, 59, 13, 1)" stroke-width="1.5"></path><path d="M478.31 339.34L575.4 496.32" stroke="rgba(2, 59, 13, 1)" stroke-width="1.5"></path><path d="M485.05 491.87L485.05 491.87" stroke="rgba(2, 59, 13, 1)" stroke-width="1.5"></path><path d="M485.05 491.87L575.4 496.32" stroke="rgba(2, 59, 13, 1)" stroke-width="1.5"></path><path d="M485.05 491.87L501.61 592.6" stroke="rgba(2, 59, 13, 1)" stroke-width="1.5"></path><path d="M485.05 491.87L596.08 588.01" stroke="rgba(2, 59, 13, 1)" stroke-width="1.5"></path><path d="M501.61 592.6L501.61 592.6" stroke="rgba(2, 59, 13, 1)" stroke-width="1.5"></path><path d="M501.61 592.6L596.08 588.01" stroke="rgba(2, 59, 13, 1)" stroke-width="1.5"></path><path d="M501.61 592.6L575.4 496.32" stroke="rgba(2, 59, 13, 1)" stroke-width="1.5"></path><path d="M501.61 592.6L494.82 747.2" stroke="rgba(2, 59, 13, 1)" stroke-width="1.5"></path><path d="M501.61 592.6L621.94 709.64" stroke="rgba(2, 59, 13, 1)" stroke-width="1.5"></path><path d="M494.82 747.2L494.82 747.2" stroke="rgba(2, 59, 13, 1)" stroke-width="1.5"></path><path d="M494.82 747.2L621.94 709.64" stroke="rgba(2, 59, 13, 1)" stroke-width="1.5"></path><path d="M494.82 747.2L596.08 588.01" stroke="rgba(2, 59, 13, 1)" stroke-width="1.5"></path><path d="M637.24 227.82L637.24 227.82" stroke="rgba(2, 59, 13, 1)" stroke-width="1.5"></path><path d="M637.24 227.82L586.8 308.86" stroke="rgba(2, 59, 13, 1)" stroke-width="1.5"></path><path d="M586.8 308.86L586.8 308.86" stroke="rgba(2, 59, 13, 1)" stroke-width="1.5"></path><path d="M586.8 308.86L710.94 357.34" stroke="rgba(2, 59, 13, 1)" stroke-width="1.5"></path><path d="M586.8 308.86L575.4 496.32" stroke="rgba(2, 59, 13, 1)" stroke-width="1.5"></path><path d="M586.8 308.86L738.95 185.94" stroke="rgba(2, 59, 13, 1)" stroke-width="1.5"></path><path d="M575.4 496.32L575.4 496.32" stroke="rgba(2, 59, 13, 1)" stroke-width="1.5"></path><path d="M575.4 496.32L596.08 588.01" stroke="rgba(2, 59, 13, 1)" stroke-width="1.5"></path><path d="M596.08 588.01L596.08 588.01" stroke="rgba(2, 59, 13, 1)" stroke-width="1.5"></path><path d="M596.08 588.01L621.94 709.64" stroke="rgba(2, 59, 13, 1)" stroke-width="1.5"></path><path d="M596.08 588.01L747.16 607.3" stroke="rgba(2, 59, 13, 1)" stroke-width="1.5"></path><path d="M621.94 709.64L621.94 709.64" stroke="rgba(2, 59, 13, 1)" stroke-width="1.5"></path><path d="M621.94 709.64L761.23 707.15" stroke="rgba(2, 59, 13, 1)" stroke-width="1.5"></path><path d="M621.94 709.64L747.16 607.3" stroke="rgba(2, 59, 13, 1)" stroke-width="1.5"></path><path d="M767.39 -43.1L767.39 -43.1" stroke="rgba(2, 59, 13, 1)" stroke-width="1.5"></path><path d="M767.39 -43.1L727.22 53.67" stroke="rgba(2, 59, 13, 1)" stroke-width="1.5"></path><path d="M767.39 -43.1L885.25 -49.65" stroke="rgba(2, 59, 13, 1)" stroke-width="1.5"></path><path d="M767.39 -43.1L886.94 84.18" stroke="rgba(2, 59, 13, 1)" stroke-width="1.5"></path><path d="M767.39 -43.1L738.95 185.94" stroke="rgba(2, 59, 13, 1)" stroke-width="1.5"></path><path d="M727.22 53.67L727.22 53.67" stroke="rgba(2, 59, 13, 1)" stroke-width="1.5"></path><path d="M727.22 53.67L738.95 185.94" stroke="rgba(2, 59, 13, 1)" stroke-width="1.5"></path><path d="M727.22 53.67L886.94 84.18" stroke="rgba(2, 59, 13, 1)" stroke-width="1.5"></path><path d="M727.22 53.67L885.25 -49.65" stroke="rgba(2, 59, 13, 1)" stroke-width="1.5"></path><path d="M738.95 185.94L738.95 185.94" stroke="rgba(2, 59, 13, 1)" stroke-width="1.5"></path><path d="M738.95 185.94L637.24 227.82" stroke="rgba(2, 59, 13, 1)" stroke-width="1.5"></path><path d="M738.95 185.94L892.36 191.74" stroke="rgba(2, 59, 13, 1)" stroke-width="1.5"></path><path d="M738.95 185.94L849.41 314.44" stroke="rgba(2, 59, 13, 1)" stroke-width="1.5"></path><path d="M738.95 185.94L710.94 357.34" stroke="rgba(2, 59, 13, 1)" stroke-width="1.5"></path><path d="M710.94 357.34L710.94 357.34" stroke="rgba(2, 59, 13, 1)" stroke-width="1.5"></path><path d="M710.94 357.34L849.41 314.44" stroke="rgba(2, 59, 13, 1)" stroke-width="1.5"></path><path d="M710.94 357.34L637.24 227.82" stroke="rgba(2, 59, 13, 1)" stroke-width="1.5"></path><path d="M710.94 357.34L862.76 472.65" stroke="rgba(2, 59, 13, 1)" stroke-width="1.5"></path><path d="M710.94 357.34L575.4 496.32" stroke="rgba(2, 59, 13, 1)" stroke-width="1.5"></path><path d="M747.16 607.3L747.16 607.3" stroke="rgba(2, 59, 13, 1)" stroke-width="1.5"></path><path d="M747.16 607.3L843.66 624.43" stroke="rgba(2, 59, 13, 1)" stroke-width="1.5"></path><path d="M761.23 707.15L761.23 707.15" stroke="rgba(2, 59, 13, 1)" stroke-width="1.5"></path><path d="M761.23 707.15L747.16 607.3" stroke="rgba(2, 59, 13, 1)" stroke-width="1.5"></path><path d="M761.23 707.15L843.66 624.43" stroke="rgba(2, 59, 13, 1)" stroke-width="1.5"></path><path d="M761.23 707.15L868.08 771.04" stroke="rgba(2, 59, 13, 1)" stroke-width="1.5"></path><path d="M885.25 -49.65L885.25 -49.65" stroke="rgba(2, 59, 13, 1)" stroke-width="1.5"></path><path d="M885.25 -49.65L886.94 84.18" stroke="rgba(2, 59, 13, 1)" stroke-width="1.5"></path><path d="M886.94 84.18L886.94 84.18" stroke="rgba(2, 59, 13, 1)" stroke-width="1.5"></path><path d="M886.94 84.18L892.36 191.74" stroke="rgba(2, 59, 13, 1)" stroke-width="1.5"></path><path d="M886.94 84.18L999.67 55.92" stroke="rgba(2, 59, 13, 1)" stroke-width="1.5"></path><path d="M892.36 191.74L892.36 191.74" stroke="rgba(2, 59, 13, 1)" stroke-width="1.5"></path><path d="M892.36 191.74L849.41 314.44" stroke="rgba(2, 59, 13, 1)" stroke-width="1.5"></path><path d="M892.36 191.74L1035.55 205.07" stroke="rgba(2, 59, 13, 1)" stroke-width="1.5"></path><path d="M849.41 314.44L849.41 314.44" stroke="rgba(2, 59, 13, 1)" stroke-width="1.5"></path><path d="M849.41 314.44L862.76 472.65" stroke="rgba(2, 59, 13, 1)" stroke-width="1.5"></path><path d="M849.41 314.44L1014.02 367.73" stroke="rgba(2, 59, 13, 1)" stroke-width="1.5"></path><path d="M849.41 314.44L1035.55 205.07" stroke="rgba(2, 59, 13, 1)" stroke-width="1.5"></path><path d="M862.76 472.65L862.76 472.65" stroke="rgba(2, 59, 13, 1)" stroke-width="1.5"></path><path d="M862.76 472.65L843.66 624.43" stroke="rgba(2, 59, 13, 1)" stroke-width="1.5"></path><path d="M862.76 472.65L747.16 607.3" stroke="rgba(2, 59, 13, 1)" stroke-width="1.5"></path><path d="M862.76 472.65L1014.02 367.73" stroke="rgba(2, 59, 13, 1)" stroke-width="1.5"></path><path d="M862.76 472.65L994.8 617.44" stroke="rgba(2, 59, 13, 1)" stroke-width="1.5"></path><path d="M843.66 624.43L843.66 624.43" stroke="rgba(2, 59, 13, 1)" stroke-width="1.5"></path><path d="M843.66 624.43L868.08 771.04" stroke="rgba(2, 59, 13, 1)" stroke-width="1.5"></path><path d="M868.08 771.04L868.08 771.04" stroke="rgba(2, 59, 13, 1)" stroke-width="1.5"></path><path d="M868.08 771.04L1025.5 761.69" stroke="rgba(2, 59, 13, 1)" stroke-width="1.5"></path><path d="M868.08 771.04L994.8 617.44" stroke="rgba(2, 59, 13, 1)" stroke-width="1.5"></path><path d="M1037.88 -39.14L1037.88 -39.14" stroke="rgba(2, 59, 13, 1)" stroke-width="1.5"></path><path d="M1037.88 -39.14L999.67 55.92" stroke="rgba(2, 59, 13, 1)" stroke-width="1.5"></path><path d="M1037.88 -39.14L885.25 -49.65" stroke="rgba(2, 59, 13, 1)" stroke-width="1.5"></path><path d="M1037.88 -39.14L1158.52 86.31" stroke="rgba(2, 59, 13, 1)" stroke-width="1.5"></path><path d="M1037.88 -39.14L886.94 84.18" stroke="rgba(2, 59, 13, 1)" stroke-width="1.5"></path><path d="M1037.88 -39.14L1035.55 205.07" stroke="rgba(2, 59, 13, 1)" stroke-width="1.5"></path><path d="M999.67 55.92L999.67 55.92" stroke="rgba(2, 59, 13, 1)" stroke-width="1.5"></path><path d="M1035.55 205.07L1035.55 205.07" stroke="rgba(2, 59, 13, 1)" stroke-width="1.5"></path><path d="M1035.55 205.07L1138.62 208.95" stroke="rgba(2, 59, 13, 1)" stroke-width="1.5"></path><path d="M1035.55 205.07L999.67 55.92" stroke="rgba(2, 59, 13, 1)" stroke-width="1.5"></path><path d="M1035.55 205.07L1116.19 336.46" stroke="rgba(2, 59, 13, 1)" stroke-width="1.5"></path><path d="M1035.55 205.07L1014.02 367.73" stroke="rgba(2, 59, 13, 1)" stroke-width="1.5"></path><path d="M1014.02 367.73L1014.02 367.73" stroke="rgba(2, 59, 13, 1)" stroke-width="1.5"></path><path d="M1014.02 367.73L1116.19 336.46" stroke="rgba(2, 59, 13, 1)" stroke-width="1.5"></path><path d="M1014.02 367.73L1138.62 208.95" stroke="rgba(2, 59, 13, 1)" stroke-width="1.5"></path><path d="M994.8 617.44L994.8 617.44" stroke="rgba(2, 59, 13, 1)" stroke-width="1.5"></path><path d="M994.8 617.44L1025.5 761.69" stroke="rgba(2, 59, 13, 1)" stroke-width="1.5"></path><path d="M994.8 617.44L843.66 624.43" stroke="rgba(2, 59, 13, 1)" stroke-width="1.5"></path><path d="M994.8 617.44L1154.73 628.35" stroke="rgba(2, 59, 13, 1)" stroke-width="1.5"></path><path d="M1025.5 761.69L1025.5 761.69" stroke="rgba(2, 59, 13, 1)" stroke-width="1.5"></path><path d="M1025.5 761.69L1175.66 717.78" stroke="rgba(2, 59, 13, 1)" stroke-width="1.5"></path><path d="M1158.52 86.31L1158.52 86.31" stroke="rgba(2, 59, 13, 1)" stroke-width="1.5"></path><path d="M1158.52 86.31L1138.62 208.95" stroke="rgba(2, 59, 13, 1)" stroke-width="1.5"></path><path d="M1158.52 86.31L999.67 55.92" stroke="rgba(2, 59, 13, 1)" stroke-width="1.5"></path><path d="M1138.62 208.95L1138.62 208.95" stroke="rgba(2, 59, 13, 1)" stroke-width="1.5"></path><path d="M1138.62 208.95L1116.19 336.46" stroke="rgba(2, 59, 13, 1)" stroke-width="1.5"></path><path d="M1116.19 336.46L1116.19 336.46" stroke="rgba(2, 59, 13, 1)" stroke-width="1.5"></path><path d="M1116.19 336.46L1158.52 86.31" stroke="rgba(2, 59, 13, 1)" stroke-width="1.5"></path><path d="M1116.19 336.46L892.36 191.74" stroke="rgba(2, 59, 13, 1)" stroke-width="1.5"></path><path d="M1116.19 336.46L849.41 314.44" stroke="rgba(2, 59, 13, 1)" stroke-width="1.5"></path><path d="M1154.73 628.35L1154.73 628.35" stroke="rgba(2, 59, 13, 1)" stroke-width="1.5"></path><path d="M1154.73 628.35L1175.66 717.78" stroke="rgba(2, 59, 13, 1)" stroke-width="1.5"></path><path d="M1175.66 717.78L1175.66 717.78" stroke="rgba(2, 59, 13, 1)" stroke-width="1.5"></path><path d="M1175.66 717.78L994.8 617.44" stroke="rgba(2, 59, 13, 1)" stroke-width="1.5"></path><circle r="5" cx="-54.68" cy="360.57" fill="rgba(2, 59, 13, 1)"></circle><circle r="5" cx="-69.77" cy="501.13" fill="rgba(2, 59, 13, 1)"></circle><circle r="5" cx="-71.29" cy="572.71" fill="rgba(2, 59, 13, 1)"></circle><circle r="5" cx="-72.93" cy="749.45" fill="rgba(2, 59, 13, 1)"></circle><circle r="5" cx="68.24" cy="452.24" fill="rgba(2, 59, 13, 1)"></circle><circle r="5" cx="49.98" cy="626.52" fill="rgba(2, 59, 13, 1)"></circle><circle r="5" cx="74.43" cy="745.14" fill="rgba(2, 59, 13, 1)"></circle><circle r="5" cx="181.87" cy="351.47" fill="rgba(2, 59, 13, 1)"></circle><circle r="5" cx="213.4" cy="442.61" fill="rgba(2, 59, 13, 1)"></circle><circle r="5" cx="189.53" cy="612.67" fill="rgba(2, 59, 13, 1)"></circle><circle r="5" cx="173.29" cy="752.69" fill="rgba(2, 59, 13, 1)"></circle><circle r="5" cx="351.92" cy="360.93" fill="rgba(2, 59, 13, 1)"></circle><circle r="5" cx="359.98" cy="456.85" fill="rgba(2, 59, 13, 1)"></circle><circle r="5" cx="353.53" cy="590.77" fill="rgba(2, 59, 13, 1)"></circle><circle r="5" cx="356.37" cy="740.55" fill="rgba(2, 59, 13, 1)"></circle><circle r="5" cx="478.31" cy="339.34" fill="rgba(2, 59, 13, 1)"></circle><circle r="5" cx="485.05" cy="491.87" fill="rgba(2, 59, 13, 1)"></circle><circle r="5" cx="501.61" cy="592.6" fill="rgba(2, 59, 13, 1)"></circle><circle r="5" cx="494.82" cy="747.2" fill="rgba(2, 59, 13, 1)"></circle><circle r="5" cx="637.24" cy="227.82" fill="rgba(2, 59, 13, 1)"></circle><circle r="5" cx="586.8" cy="308.86" fill="rgba(2, 59, 13, 1)"></circle><circle r="5" cx="575.4" cy="496.32" fill="rgba(2, 59, 13, 1)"></circle><circle r="5" cx="596.08" cy="588.01" fill="rgba(2, 59, 13, 1)"></circle><circle r="5" cx="621.94" cy="709.64" fill="rgba(2, 59, 13, 1)"></circle><circle r="5" cx="767.39" cy="-43.1" fill="rgba(2, 59, 13, 1)"></circle><circle r="5" cx="727.22" cy="53.67" fill="rgba(2, 59, 13, 1)"></circle><circle r="5" cx="738.95" cy="185.94" fill="rgba(2, 59, 13, 1)"></circle><circle r="5" cx="710.94" cy="357.34" fill="rgba(2, 59, 13, 1)"></circle><circle r="5" cx="747.16" cy="607.3" fill="rgba(2, 59, 13, 1)"></circle><circle r="5" cx="761.23" cy="707.15" fill="rgba(2, 59, 13, 1)"></circle><circle r="5" cx="885.25" cy="-49.65" fill="rgba(2, 59, 13, 1)"></circle><circle r="5" cx="886.94" cy="84.18" fill="rgba(2, 59, 13, 1)"></circle><circle r="5" cx="892.36" cy="191.74" fill="rgba(2, 59, 13, 1)"></circle><circle r="5" cx="849.41" cy="314.44" fill="rgba(2, 59, 13, 1)"></circle><circle r="5" cx="862.76" cy="472.65" fill="rgba(2, 59, 13, 1)"></circle><circle r="5" cx="843.66" cy="624.43" fill="rgba(2, 59, 13, 1)"></circle><circle r="5" cx="868.08" cy="771.04" fill="rgba(2, 59, 13, 1)"></circle><circle r="5" cx="1037.88" cy="-39.14" fill="rgba(2, 59, 13, 1)"></circle><circle r="5" cx="999.67" cy="55.92" fill="rgba(2, 59, 13, 1)"></circle><circle r="5" cx="1035.55" cy="205.07" fill="rgba(2, 59, 13, 1)"></circle><circle r="5" cx="1014.02" cy="367.73" fill="rgba(2, 59, 13, 1)"></circle><circle r="5" cx="994.8" cy="617.44" fill="rgba(2, 59, 13, 1)"></circle><circle r="5" cx="1025.5" cy="761.69" fill="rgba(2, 59, 13, 1)"></circle><circle r="5" cx="1158.52" cy="86.31" fill="rgba(2, 59, 13, 1)"></circle><circle r="5" cx="1138.62" cy="208.95" fill="rgba(2, 59, 13, 1)"></circle><circle r="5" cx="1116.19" cy="336.46" fill="rgba(2, 59, 13, 1)"></circle><circle r="5" cx="1154.73" cy="628.35" fill="rgba(2, 59, 13, 1)"></circle><circle r="5" cx="1175.66" cy="717.78" fill="rgba(2, 59, 13, 1)"></circle><path d="M77.31 500.14L77.31 500.14" stroke="hsl(122.19999999999999, 73.8%, 46.6%)" stroke-width="1.5"></path><path d="M77.31 500.14L62.41 583.64" stroke="hsl(122.19999999999999, 73.8%, 46.6%)" stroke-width="1.5"></path><path d="M77.31 500.14L201.6 590.59" stroke="hsl(122.19999999999999, 73.8%, 46.6%)" stroke-width="1.5"></path><path d="M343.57 754.5L343.57 754.5" stroke="hsl(122.19999999999999, 73.8%, 46.6%)" stroke-width="1.5"></path><path d="M343.57 754.5L360.91 631.73" stroke="hsl(122.19999999999999, 73.8%, 46.6%)" stroke-width="1.5"></path><path d="M343.57 754.5L216.21 772.36" stroke="hsl(122.19999999999999, 73.8%, 46.6%)" stroke-width="1.5"></path><path d="M343.57 754.5L493.88 732.11" stroke="hsl(122.19999999999999, 73.8%, 46.6%)" stroke-width="1.5"></path><path d="M343.57 754.5L445.51 628.46" stroke="hsl(122.19999999999999, 73.8%, 46.6%)" stroke-width="1.5"></path><path d="M493.88 732.11L493.88 732.11" stroke="hsl(122.19999999999999, 73.8%, 46.6%)" stroke-width="1.5"></path><path d="M493.88 732.11L593.45 770.77" stroke="hsl(122.19999999999999, 73.8%, 46.6%)" stroke-width="1.5"></path><path d="M493.88 732.11L445.51 628.46" stroke="hsl(122.19999999999999, 73.8%, 46.6%)" stroke-width="1.5"></path><path d="M493.88 732.11L585.69 617.47" stroke="hsl(122.19999999999999, 73.8%, 46.6%)" stroke-width="1.5"></path><path d="M493.88 732.11L360.91 631.73" stroke="hsl(122.19999999999999, 73.8%, 46.6%)" stroke-width="1.5"></path><path d="M581.26 358.75L581.26 358.75" stroke="hsl(122.19999999999999, 73.8%, 46.6%)" stroke-width="1.5"></path><path d="M581.26 358.75L619.39 490" stroke="hsl(122.19999999999999, 73.8%, 46.6%)" stroke-width="1.5"></path><path d="M581.26 358.75L708.49 307.64" stroke="hsl(122.19999999999999, 73.8%, 46.6%)" stroke-width="1.5"></path><path d="M581.26 358.75L713.88 445.87" stroke="hsl(122.19999999999999, 73.8%, 46.6%)" stroke-width="1.5"></path><path d="M581.26 358.75L476.61 482.37" stroke="hsl(122.19999999999999, 73.8%, 46.6%)" stroke-width="1.5"></path><path d="M581.26 358.75L585.69 617.47" stroke="hsl(122.19999999999999, 73.8%, 46.6%)" stroke-width="1.5"></path><path d="M581.26 358.75L735.81 580.4" stroke="hsl(122.19999999999999, 73.8%, 46.6%)" stroke-width="1.5"></path><path d="M619.39 490L619.39 490" stroke="hsl(122.19999999999999, 73.8%, 46.6%)" stroke-width="1.5"></path><path d="M619.39 490L713.88 445.87" stroke="hsl(122.19999999999999, 73.8%, 46.6%)" stroke-width="1.5"></path><path d="M619.39 490L585.69 617.47" stroke="hsl(122.19999999999999, 73.8%, 46.6%)" stroke-width="1.5"></path><path d="M713.88 445.87L713.88 445.87" stroke="hsl(122.19999999999999, 73.8%, 46.6%)" stroke-width="1.5"></path><path d="M713.88 445.87L842.17 469.18" stroke="hsl(122.19999999999999, 73.8%, 46.6%)" stroke-width="1.5"></path><path d="M713.88 445.87L735.81 580.4" stroke="hsl(122.19999999999999, 73.8%, 46.6%)" stroke-width="1.5"></path><path d="M723.44 770.84L723.44 770.84" stroke="hsl(122.19999999999999, 73.8%, 46.6%)" stroke-width="1.5"></path><path d="M723.44 770.84L593.45 770.77" stroke="hsl(122.19999999999999, 73.8%, 46.6%)" stroke-width="1.5"></path><path d="M723.44 770.84L868.31 729.6" stroke="hsl(122.19999999999999, 73.8%, 46.6%)" stroke-width="1.5"></path><path d="M723.44 770.84L735.81 580.4" stroke="hsl(122.19999999999999, 73.8%, 46.6%)" stroke-width="1.5"></path><path d="M723.44 770.84L585.69 617.47" stroke="hsl(122.19999999999999, 73.8%, 46.6%)" stroke-width="1.5"></path><path d="M723.44 770.84L493.88 732.11" stroke="hsl(122.19999999999999, 73.8%, 46.6%)" stroke-width="1.5"></path><path d="M853.73 195.87L853.73 195.87" stroke="hsl(122.19999999999999, 73.8%, 46.6%)" stroke-width="1.5"></path><path d="M853.73 195.87L860.33 87.53" stroke="hsl(122.19999999999999, 73.8%, 46.6%)" stroke-width="1.5"></path><path d="M853.73 195.87L895.61 355.94" stroke="hsl(122.19999999999999, 73.8%, 46.6%)" stroke-width="1.5"></path><path d="M853.73 195.87L1019 230.53" stroke="hsl(122.19999999999999, 73.8%, 46.6%)" stroke-width="1.5"></path><path d="M842.17 469.18L842.17 469.18" stroke="hsl(122.19999999999999, 73.8%, 46.6%)" stroke-width="1.5"></path><path d="M842.17 469.18L895.61 355.94" stroke="hsl(122.19999999999999, 73.8%, 46.6%)" stroke-width="1.5"></path><path d="M842.17 469.18L893.9 583.8" stroke="hsl(122.19999999999999, 73.8%, 46.6%)" stroke-width="1.5"></path><path d="M842.17 469.18L735.81 580.4" stroke="hsl(122.19999999999999, 73.8%, 46.6%)" stroke-width="1.5"></path><path d="M998.71 361.13L998.71 361.13" stroke="hsl(122.19999999999999, 73.8%, 46.6%)" stroke-width="1.5"></path><path d="M998.71 361.13L895.61 355.94" stroke="hsl(122.19999999999999, 73.8%, 46.6%)" stroke-width="1.5"></path><path d="M998.71 361.13L1118.01 319.97" stroke="hsl(122.19999999999999, 73.8%, 46.6%)" stroke-width="1.5"></path><path d="M998.71 361.13L1019 230.53" stroke="hsl(122.19999999999999, 73.8%, 46.6%)" stroke-width="1.5"></path><path d="M998.71 361.13L1140.91 460.7" stroke="hsl(122.19999999999999, 73.8%, 46.6%)" stroke-width="1.5"></path><path d="M1168.24 -55.82L1168.24 -55.82" stroke="hsl(122.19999999999999, 73.8%, 46.6%)" stroke-width="1.5"></path><path d="M1168.24 -55.82L1151.89 43.31" stroke="hsl(122.19999999999999, 73.8%, 46.6%)" stroke-width="1.5"></path><path d="M1168.24 -55.82L1021.87 -59.83" stroke="hsl(122.19999999999999, 73.8%, 46.6%)" stroke-width="1.5"></path><path d="M1168.24 -55.82L979.5 82.58" stroke="hsl(122.19999999999999, 73.8%, 46.6%)" stroke-width="1.5"></path><path d="M1168.24 -55.82L1133.89 232.89" stroke="hsl(122.19999999999999, 73.8%, 46.6%)" stroke-width="1.5"></path><path d="M-62.36 722.91L-62.36 722.91" stroke="hsl(122.19999999999999, 73.8%, 46.6%)" stroke-width="1.5"></path><path d="M-62.36 722.91L81.57 752.23" stroke="hsl(122.19999999999999, 73.8%, 46.6%)" stroke-width="1.5"></path><path d="M-62.36 722.91L62.41 583.64" stroke="hsl(122.19999999999999, 73.8%, 46.6%)" stroke-width="1.5"></path><path d="M-62.36 722.91L77.31 500.14" stroke="hsl(122.19999999999999, 73.8%, 46.6%)" stroke-width="1.5"></path><path d="M62.41 583.64L62.41 583.64" stroke="hsl(122.19999999999999, 73.8%, 46.6%)" stroke-width="1.5"></path><path d="M62.41 583.64L201.6 590.59" stroke="hsl(122.19999999999999, 73.8%, 46.6%)" stroke-width="1.5"></path><path d="M81.57 752.23L81.57 752.23" stroke="hsl(122.19999999999999, 73.8%, 46.6%)" stroke-width="1.5"></path><path d="M81.57 752.23L216.21 772.36" stroke="hsl(122.19999999999999, 73.8%, 46.6%)" stroke-width="1.5"></path><path d="M81.57 752.23L62.41 583.64" stroke="hsl(122.19999999999999, 73.8%, 46.6%)" stroke-width="1.5"></path><path d="M201.6 590.59L201.6 590.59" stroke="hsl(122.19999999999999, 73.8%, 46.6%)" stroke-width="1.5"></path><path d="M201.6 590.59L311.01 500.69" stroke="hsl(122.19999999999999, 73.8%, 46.6%)" stroke-width="1.5"></path><path d="M201.6 590.59L360.91 631.73" stroke="hsl(122.19999999999999, 73.8%, 46.6%)" stroke-width="1.5"></path><path d="M201.6 590.59L216.21 772.36" stroke="hsl(122.19999999999999, 73.8%, 46.6%)" stroke-width="1.5"></path><path d="M216.21 772.36L216.21 772.36" stroke="hsl(122.19999999999999, 73.8%, 46.6%)" stroke-width="1.5"></path><path d="M216.21 772.36L360.91 631.73" stroke="hsl(122.19999999999999, 73.8%, 46.6%)" stroke-width="1.5"></path><path d="M311.01 500.69L311.01 500.69" stroke="hsl(122.19999999999999, 73.8%, 46.6%)" stroke-width="1.5"></path><path d="M311.01 500.69L360.91 631.73" stroke="hsl(122.19999999999999, 73.8%, 46.6%)" stroke-width="1.5"></path><path d="M311.01 500.69L476.61 482.37" stroke="hsl(122.19999999999999, 73.8%, 46.6%)" stroke-width="1.5"></path><path d="M311.01 500.69L445.51 628.46" stroke="hsl(122.19999999999999, 73.8%, 46.6%)" stroke-width="1.5"></path><path d="M311.01 500.69L77.31 500.14" stroke="hsl(122.19999999999999, 73.8%, 46.6%)" stroke-width="1.5"></path><path d="M311.01 500.69L343.57 754.5" stroke="hsl(122.19999999999999, 73.8%, 46.6%)" stroke-width="1.5"></path><path d="M360.91 631.73L360.91 631.73" stroke="hsl(122.19999999999999, 73.8%, 46.6%)" stroke-width="1.5"></path><path d="M360.91 631.73L445.51 628.46" stroke="hsl(122.19999999999999, 73.8%, 46.6%)" stroke-width="1.5"></path><path d="M476.61 482.37L476.61 482.37" stroke="hsl(122.19999999999999, 73.8%, 46.6%)" stroke-width="1.5"></path><path d="M476.61 482.37L619.39 490" stroke="hsl(122.19999999999999, 73.8%, 46.6%)" stroke-width="1.5"></path><path d="M476.61 482.37L445.51 628.46" stroke="hsl(122.19999999999999, 73.8%, 46.6%)" stroke-width="1.5"></path><path d="M476.61 482.37L585.69 617.47" stroke="hsl(122.19999999999999, 73.8%, 46.6%)" stroke-width="1.5"></path><path d="M445.51 628.46L445.51 628.46" stroke="hsl(122.19999999999999, 73.8%, 46.6%)" stroke-width="1.5"></path><path d="M585.69 617.47L585.69 617.47" stroke="hsl(122.19999999999999, 73.8%, 46.6%)" stroke-width="1.5"></path><path d="M585.69 617.47L445.51 628.46" stroke="hsl(122.19999999999999, 73.8%, 46.6%)" stroke-width="1.5"></path><path d="M585.69 617.47L593.45 770.77" stroke="hsl(122.19999999999999, 73.8%, 46.6%)" stroke-width="1.5"></path><path d="M585.69 617.47L735.81 580.4" stroke="hsl(122.19999999999999, 73.8%, 46.6%)" stroke-width="1.5"></path><path d="M593.45 770.77L593.45 770.77" stroke="hsl(122.19999999999999, 73.8%, 46.6%)" stroke-width="1.5"></path><path d="M708.49 307.64L708.49 307.64" stroke="hsl(122.19999999999999, 73.8%, 46.6%)" stroke-width="1.5"></path><path d="M708.49 307.64L713.88 445.87" stroke="hsl(122.19999999999999, 73.8%, 46.6%)" stroke-width="1.5"></path><path d="M708.49 307.64L853.73 195.87" stroke="hsl(122.19999999999999, 73.8%, 46.6%)" stroke-width="1.5"></path><path d="M735.81 580.4L735.81 580.4" stroke="hsl(122.19999999999999, 73.8%, 46.6%)" stroke-width="1.5"></path><path d="M735.81 580.4L619.39 490" stroke="hsl(122.19999999999999, 73.8%, 46.6%)" stroke-width="1.5"></path><path d="M735.81 580.4L893.9 583.8" stroke="hsl(122.19999999999999, 73.8%, 46.6%)" stroke-width="1.5"></path><path d="M860.33 87.53L860.33 87.53" stroke="hsl(122.19999999999999, 73.8%, 46.6%)" stroke-width="1.5"></path><path d="M860.33 87.53L979.5 82.58" stroke="hsl(122.19999999999999, 73.8%, 46.6%)" stroke-width="1.5"></path><path d="M860.33 87.53L1019 230.53" stroke="hsl(122.19999999999999, 73.8%, 46.6%)" stroke-width="1.5"></path><path d="M860.33 87.53L1021.87 -59.83" stroke="hsl(122.19999999999999, 73.8%, 46.6%)" stroke-width="1.5"></path><path d="M860.33 87.53L708.49 307.64" stroke="hsl(122.19999999999999, 73.8%, 46.6%)" stroke-width="1.5"></path><path d="M895.61 355.94L895.61 355.94" stroke="hsl(122.19999999999999, 73.8%, 46.6%)" stroke-width="1.5"></path><path d="M895.61 355.94L1019 230.53" stroke="hsl(122.19999999999999, 73.8%, 46.6%)" stroke-width="1.5"></path><path d="M895.61 355.94L708.49 307.64" stroke="hsl(122.19999999999999, 73.8%, 46.6%)" stroke-width="1.5"></path><path d="M895.61 355.94L713.88 445.87" stroke="hsl(122.19999999999999, 73.8%, 46.6%)" stroke-width="1.5"></path><path d="M893.9 583.8L893.9 583.8" stroke="hsl(122.19999999999999, 73.8%, 46.6%)" stroke-width="1.5"></path><path d="M893.9 583.8L1032.08 602.41" stroke="hsl(122.19999999999999, 73.8%, 46.6%)" stroke-width="1.5"></path><path d="M893.9 583.8L868.31 729.6" stroke="hsl(122.19999999999999, 73.8%, 46.6%)" stroke-width="1.5"></path><path d="M893.9 583.8L1111.05 580.69" stroke="hsl(122.19999999999999, 73.8%, 46.6%)" stroke-width="1.5"></path><path d="M868.31 729.6L868.31 729.6" stroke="hsl(122.19999999999999, 73.8%, 46.6%)" stroke-width="1.5"></path><path d="M868.31 729.6L735.81 580.4" stroke="hsl(122.19999999999999, 73.8%, 46.6%)" stroke-width="1.5"></path><path d="M868.31 729.6L1032.08 602.41" stroke="hsl(122.19999999999999, 73.8%, 46.6%)" stroke-width="1.5"></path><path d="M1021.87 -59.83L1021.87 -59.83" stroke="hsl(122.19999999999999, 73.8%, 46.6%)" stroke-width="1.5"></path><path d="M1021.87 -59.83L979.5 82.58" stroke="hsl(122.19999999999999, 73.8%, 46.6%)" stroke-width="1.5"></path><path d="M1021.87 -59.83L1151.89 43.31" stroke="hsl(122.19999999999999, 73.8%, 46.6%)" stroke-width="1.5"></path><path d="M1021.87 -59.83L1019 230.53" stroke="hsl(122.19999999999999, 73.8%, 46.6%)" stroke-width="1.5"></path><path d="M1021.87 -59.83L853.73 195.87" stroke="hsl(122.19999999999999, 73.8%, 46.6%)" stroke-width="1.5"></path><path d="M979.5 82.58L979.5 82.58" stroke="hsl(122.19999999999999, 73.8%, 46.6%)" stroke-width="1.5"></path><path d="M1019 230.53L1019 230.53" stroke="hsl(122.19999999999999, 73.8%, 46.6%)" stroke-width="1.5"></path><path d="M1019 230.53L1133.89 232.89" stroke="hsl(122.19999999999999, 73.8%, 46.6%)" stroke-width="1.5"></path><path d="M1032.08 602.41L1032.08 602.41" stroke="hsl(122.19999999999999, 73.8%, 46.6%)" stroke-width="1.5"></path><path d="M1032.08 602.41L1111.05 580.69" stroke="hsl(122.19999999999999, 73.8%, 46.6%)" stroke-width="1.5"></path><path d="M1151.89 43.31L1151.89 43.31" stroke="hsl(122.19999999999999, 73.8%, 46.6%)" stroke-width="1.5"></path><path d="M1151.89 43.31L979.5 82.58" stroke="hsl(122.19999999999999, 73.8%, 46.6%)" stroke-width="1.5"></path><path d="M1133.89 232.89L1133.89 232.89" stroke="hsl(122.19999999999999, 73.8%, 46.6%)" stroke-width="1.5"></path><path d="M1133.89 232.89L1118.01 319.97" stroke="hsl(122.19999999999999, 73.8%, 46.6%)" stroke-width="1.5"></path><path d="M1133.89 232.89L998.71 361.13" stroke="hsl(122.19999999999999, 73.8%, 46.6%)" stroke-width="1.5"></path><path d="M1133.89 232.89L1151.89 43.31" stroke="hsl(122.19999999999999, 73.8%, 46.6%)" stroke-width="1.5"></path><path d="M1133.89 232.89L979.5 82.58" stroke="hsl(122.19999999999999, 73.8%, 46.6%)" stroke-width="1.5"></path><path d="M1118.01 319.97L1118.01 319.97" stroke="hsl(122.19999999999999, 73.8%, 46.6%)" stroke-width="1.5"></path><path d="M1118.01 319.97L1019 230.53" stroke="hsl(122.19999999999999, 73.8%, 46.6%)" stroke-width="1.5"></path><path d="M1118.01 319.97L1140.91 460.7" stroke="hsl(122.19999999999999, 73.8%, 46.6%)" stroke-width="1.5"></path><path d="M1118.01 319.97L895.61 355.94" stroke="hsl(122.19999999999999, 73.8%, 46.6%)" stroke-width="1.5"></path><path d="M1140.91 460.7L1140.91 460.7" stroke="hsl(122.19999999999999, 73.8%, 46.6%)" stroke-width="1.5"></path><path d="M1140.91 460.7L1111.05 580.69" stroke="hsl(122.19999999999999, 73.8%, 46.6%)" stroke-width="1.5"></path><path d="M1111.05 580.69L1111.05 580.69" stroke="hsl(122.19999999999999, 73.8%, 46.6%)" stroke-width="1.5"></path><path d="M1111.05 580.69L1171.95 772.54" stroke="hsl(122.19999999999999, 73.8%, 46.6%)" stroke-width="1.5"></path><path d="M1171.95 772.54L1171.95 772.54" stroke="hsl(122.19999999999999, 73.8%, 46.6%)" stroke-width="1.5"></path><path d="M1171.95 772.54L1032.08 602.41" stroke="hsl(122.19999999999999, 73.8%, 46.6%)" stroke-width="1.5"></path><path d="M1171.95 772.54L868.31 729.6" stroke="hsl(122.19999999999999, 73.8%, 46.6%)" stroke-width="1.5"></path><path d="M1171.95 772.54L1140.91 460.7" stroke="hsl(122.19999999999999, 73.8%, 46.6%)" stroke-width="1.5"></path><path d="M1171.95 772.54L893.9 583.8" stroke="hsl(122.19999999999999, 73.8%, 46.6%)" stroke-width="1.5"></path><circle r="25" cx="77.31" cy="500.14" fill="url(&quot;#SvgjsRadialGradient1027&quot;)"></circle><circle r="25" cx="343.57" cy="754.5" fill="url(&quot;#SvgjsRadialGradient1027&quot;)"></circle><circle r="25" cx="493.88" cy="732.11" fill="url(&quot;#SvgjsRadialGradient1027&quot;)"></circle><circle r="25" cx="581.26" cy="358.75" fill="url(&quot;#SvgjsRadialGradient1027&quot;)"></circle><circle r="25" cx="619.39" cy="490" fill="url(&quot;#SvgjsRadialGradient1027&quot;)"></circle><circle r="25" cx="713.88" cy="445.87" fill="url(&quot;#SvgjsRadialGradient1027&quot;)"></circle><circle r="25" cx="723.44" cy="770.84" fill="url(&quot;#SvgjsRadialGradient1027&quot;)"></circle><circle r="25" cx="853.73" cy="195.87" fill="url(&quot;#SvgjsRadialGradient1027&quot;)"></circle><circle r="25" cx="842.17" cy="469.18" fill="url(&quot;#SvgjsRadialGradient1027&quot;)"></circle><circle r="25" cx="998.71" cy="361.13" fill="url(&quot;#SvgjsRadialGradient1027&quot;)"></circle><circle r="25" cx="1168.24" cy="-55.82" fill="url(&quot;#SvgjsRadialGradient1027&quot;)"></circle><circle r="5" cx="-62.36" cy="722.91" fill="#8ccf8e"></circle><circle r="5" cx="62.41" cy="583.64" fill="#8ccf8e"></circle><circle r="5" cx="81.57" cy="752.23" fill="#8ccf8e"></circle><circle r="5" cx="201.6" cy="590.59" fill="#8ccf8e"></circle><circle r="5" cx="216.21" cy="772.36" fill="#8ccf8e"></circle><circle r="5" cx="311.01" cy="500.69" fill="#8ccf8e"></circle><circle r="5" cx="360.91" cy="631.73" fill="#8ccf8e"></circle><circle r="5" cx="476.61" cy="482.37" fill="#8ccf8e"></circle><circle r="5" cx="445.51" cy="628.46" fill="#8ccf8e"></circle><circle r="5" cx="585.69" cy="617.47" fill="#8ccf8e"></circle><circle r="5" cx="593.45" cy="770.77" fill="#8ccf8e"></circle><circle r="5" cx="708.49" cy="307.64" fill="#8ccf8e"></circle><circle r="5" cx="735.81" cy="580.4" fill="#8ccf8e"></circle><circle r="5" cx="860.33" cy="87.53" fill="#8ccf8e"></circle><circle r="5" cx="895.61" cy="355.94" fill="#8ccf8e"></circle><circle r="5" cx="893.9" cy="583.8" fill="#8ccf8e"></circle><circle r="5" cx="868.31" cy="729.6" fill="#8ccf8e"></circle><circle r="5" cx="1021.87" cy="-59.83" fill="#8ccf8e"></circle><circle r="5" cx="979.5" cy="82.58" fill="#8ccf8e"></circle><circle r="5" cx="1019" cy="230.53" fill="#8ccf8e"></circle><circle r="5" cx="1032.08" cy="602.41" fill="#8ccf8e"></circle><circle r="5" cx="1151.89" cy="43.31" fill="#8ccf8e"></circle><circle r="5" cx="1133.89" cy="232.89" fill="#8ccf8e"></circle><circle r="5" cx="1118.01" cy="319.97" fill="#8ccf8e"></circle><circle r="5" cx="1140.91" cy="460.7" fill="#8ccf8e"></circle><circle r="5" cx="1111.05" cy="580.69" fill="#8ccf8e"></circle><circle r="5" cx="1171.95" cy="772.54" fill="#8ccf8e"></circle></g><defs><mask id="SvgjsMask1026"><rect width="1075" height="600" fill="#ffffff"></rect></mask><radialGradient id="SvgjsRadialGradient1027"><stop stop-color="#ffffff" offset="0.1"></stop><stop stop-color="rgba(24, 159, 29, 1)" offset="0.2"></stop><stop stop-color="rgba(24, 159, 29, 0)" offset="1"></stop></radialGradient></defs></svg>