<svg xmlns="http://www.w3.org/2000/svg" version="1.1" xmlns:xlink="http://www.w3.org/1999/xlink" xmlns:svgjs="http://svgjs.dev/svgjs" width="1075" height="600" preserveAspectRatio="none" viewBox="0 0 1075 600"><g mask="url(&quot;#SvgjsMask1987&quot;)" fill="none"><rect width="1075" height="600" x="0" y="0" fill="url(&quot;#SvgjsRadialGradient1988&quot;)"></rect><path d="M867 503L533 837" stroke-width="10" stroke="url(&quot;#SvgjsLinearGradient1989&quot;)" stroke-linecap="round" class="TopRight"></path><path d="M1006 455L1441 20" stroke-width="8" stroke="url(&quot;#SvgjsLinearGradient1989&quot;)" stroke-linecap="round" class="TopRight"></path><path d="M818 557L560 815" stroke-width="8" stroke="url(&quot;#SvgjsLinearGradient1989&quot;)" stroke-linecap="round" class="TopRight"></path><path d="M406 515L731 190" stroke-width="10" stroke="url(&quot;#SvgjsLinearGradient1990&quot;)" stroke-linecap="round" class="BottomLeft"></path><path d="M1046 355L1247 154" stroke-width="6" stroke="url(&quot;#SvgjsLinearGradient1990&quot;)" stroke-linecap="round" class="BottomLeft"></path><path d="M477 441L137 781" stroke-width="6" stroke="url(&quot;#SvgjsLinearGradient1989&quot;)" stroke-linecap="round" class="TopRight"></path><path d="M928 431L1260 99" stroke-width="8" stroke="url(&quot;#SvgjsLinearGradient1990&quot;)" stroke-linecap="round" class="BottomLeft"></path><path d="M1022 400L594 828" stroke-width="6" stroke="url(&quot;#SvgjsLinearGradient1989&quot;)" stroke-linecap="round" class="TopRight"></path><path d="M17 213L305 -75" stroke-width="10" stroke="url(&quot;#SvgjsLinearGradient1989&quot;)" stroke-linecap="round" class="TopRight"></path><path d="M212 100L-180 492" stroke-width="8" stroke="url(&quot;#SvgjsLinearGradient1989&quot;)" stroke-linecap="round" class="TopRight"></path><path d="M938 397L1111 224" stroke-width="8" stroke="url(&quot;#SvgjsLinearGradient1989&quot;)" stroke-linecap="round" class="TopRight"></path><path d="M786 132L1060 -142" stroke-width="6" stroke="url(&quot;#SvgjsLinearGradient1990&quot;)" stroke-linecap="round" class="BottomLeft"></path><path d="M174 377L469 82" stroke-width="10" stroke="url(&quot;#SvgjsLinearGradient1989&quot;)" stroke-linecap="round" class="TopRight"></path><path d="M114 125L-69 308" stroke-width="10" stroke="url(&quot;#SvgjsLinearGradient1989&quot;)" stroke-linecap="round" class="TopRight"></path><path d="M497 591L921 167" stroke-width="8" stroke="url(&quot;#SvgjsLinearGradient1989&quot;)" stroke-linecap="round" class="TopRight"></path><path d="M173 383L-151 707" stroke-width="6" stroke="url(&quot;#SvgjsLinearGradient1990&quot;)" stroke-linecap="round" class="BottomLeft"></path><path d="M551 193L924 -180" stroke-width="8" stroke="url(&quot;#SvgjsLinearGradient1989&quot;)" stroke-linecap="round" class="TopRight"></path><path d="M763 340L473 630" stroke-width="10" stroke="url(&quot;#SvgjsLinearGradient1990&quot;)" stroke-linecap="round" class="BottomLeft"></path><path d="M578 160L351 387" stroke-width="8" stroke="url(&quot;#SvgjsLinearGradient1989&quot;)" stroke-linecap="round" class="TopRight"></path><path d="M854 123L531 446" stroke-width="10" stroke="url(&quot;#SvgjsLinearGradient1989&quot;)" stroke-linecap="round" class="TopRight"></path><path d="M354 540L75 819" stroke-width="8" stroke="url(&quot;#SvgjsLinearGradient1989&quot;)" stroke-linecap="round" class="TopRight"></path><path d="M621 352L438 535" stroke-width="8" stroke="url(&quot;#SvgjsLinearGradient1990&quot;)" stroke-linecap="round" class="BottomLeft"></path><path d="M364 177L651 -110" stroke-width="10" stroke="url(&quot;#SvgjsLinearGradient1989&quot;)" stroke-linecap="round" class="TopRight"></path><path d="M391 257L205 443" stroke-width="6" stroke="url(&quot;#SvgjsLinearGradient1990&quot;)" stroke-linecap="round" class="BottomLeft"></path><path d="M5 408L-357 770" stroke-width="6" stroke="url(&quot;#SvgjsLinearGradient1989&quot;)" stroke-linecap="round" class="TopRight"></path><path d="M42 60L-218 320" stroke-width="8" stroke="url(&quot;#SvgjsLinearGradient1990&quot;)" stroke-linecap="round" class="BottomLeft"></path><path d="M210 321L-117 648" stroke-width="8" stroke="url(&quot;#SvgjsLinearGradient1989&quot;)" stroke-linecap="round" class="TopRight"></path><path d="M1009 323L687 645" stroke-width="10" stroke="url(&quot;#SvgjsLinearGradient1990&quot;)" stroke-linecap="round" class="BottomLeft"></path><path d="M960 492L597 855" stroke-width="6" stroke="url(&quot;#SvgjsLinearGradient1990&quot;)" stroke-linecap="round" class="BottomLeft"></path><path d="M823 523L1133 213" stroke-width="10" stroke="url(&quot;#SvgjsLinearGradient1990&quot;)" stroke-linecap="round" class="BottomLeft"></path><path d="M475 556L692 339" stroke-width="6" stroke="url(&quot;#SvgjsLinearGradient1989&quot;)" stroke-linecap="round" class="TopRight"></path></g><defs><mask id="SvgjsMask1987"><rect width="1075" height="600" fill="#ffffff"></rect></mask><radialGradient cx="50%" cy="100%" r="805.55" gradientUnits="userSpaceOnUse" id="SvgjsRadialGradient1988"><stop stop-color="rgba(11, 43, 9, 1)" offset="0"></stop><stop stop-color="rgba(9, 82, 1, 1)" offset="1"></stop></radialGradient><linearGradient x1="0%" y1="100%" x2="100%" y2="0%" id="SvgjsLinearGradient1989"><stop stop-color="rgba(12, 94, 8, 0)" offset="0"></stop><stop stop-color="rgba(12, 94, 8, 1)" offset="1"></stop></linearGradient><linearGradient x1="100%" y1="0%" x2="0%" y2="100%" id="SvgjsLinearGradient1990"><stop stop-color="rgba(12, 94, 8, 0)" offset="0"></stop><stop stop-color="rgba(12, 94, 8, 1)" offset="1"></stop></linearGradient></defs></svg>